<svg width="100" height="40" viewBox="0 0 100 40" fill="none" xmlns="http://www.w3.org/2000/svg">
<g clip-path="url(#clip0_1_59)">
<path d="M18.2267 6.10352H22.3379V10.2147H18.2267V6.10352Z" fill="black"/>
<path fill-rule="evenodd" clip-rule="evenodd" d="M34.2304 16.66H37.8407V23.3406C37.8407 23.8974 37.7024 24.3048 37.424 24.5608C37.1456 24.8187 36.7382 24.9682 36.2037 25.0112C35.6693 25.0317 35.004 25.0224 34.2117 24.9794V28.7374C37.0166 29.0588 39.018 28.8009 40.2177 27.9675C41.395 27.1116 41.9836 25.5699 41.9836 23.3424V16.6618H44.7773V12.6777H41.9836V9.43367L37.8407 8.18164V12.6796H31.4367V9.43554L27.2938 8.1835V12.6815H23.6647V16.6656H27.2938V23.3462C27.2938 23.9031 27.1555 24.3104 26.877 24.5664C26.5986 24.8243 26.1912 24.9738 25.6568 25.0168C25.1223 25.0374 24.4571 25.028 23.6666 24.985V28.743C26.4715 29.0644 28.4729 28.8065 29.6726 27.9731C30.8499 27.1172 31.4385 25.5755 31.4385 23.348V16.6674H34.2322L34.2304 16.66Z" fill="black"/>
<path d="M18.2067 12.6738H22.3496V28.7353H18.2067V12.6738Z" fill="black"/>
<path fill-rule="evenodd" clip-rule="evenodd" d="M8.44598 12.2578C13.1103 12.2578 16.8926 16.0401 16.8926 20.7062C16.8926 25.3724 13.1103 29.1546 8.44598 29.1546C3.78168 29.1546 -0.00102234 25.3724 -0.00102234 20.7062C-0.00102234 16.0401 3.77988 12.2578 8.44598 12.2578ZM8.46098 25.1724C10.9352 25.1724 12.9421 23.1654 12.9421 20.6913C12.9421 18.2171 10.9352 16.2101 8.46098 16.2101C5.98678 16.2101 3.98167 18.2152 3.98167 20.6913C3.98167 23.1673 5.98678 25.1724 8.46098 25.1724Z" fill="black"/>
<path fill-rule="evenodd" clip-rule="evenodd" d="M50.2082 12.6428V13.5341C51.5032 12.7268 53.0318 12.2578 54.6706 12.2578C59.3349 12.2578 63.1172 16.0401 63.1172 20.7062C63.1172 25.3724 59.3349 29.1546 54.6706 29.1546C53.0318 29.1546 51.5032 28.6874 50.2082 27.8783V28.7697H46.097V12.6428H50.2082ZM54.6856 25.1724C57.1598 25.1724 59.1667 23.1654 59.1667 20.6913C59.1667 18.2171 57.1598 16.2101 54.6856 16.2101C52.2114 16.2101 50.2474 18.176 50.2082 20.6165V20.7641C50.2474 23.2047 52.2357 25.1705 54.6856 25.1705V25.1724Z" fill="black"/>
</g>
<defs>
<clipPath id="clip0_1_59">
<rect width="100" height="40" fill="white" transform="matrix(-1 0 0 1 100 0)"/>
</clipPath>
</defs>
</svg>
