<svg width="450" height="105" viewBox="0 0 450 105" fill="none" xmlns="http://www.w3.org/2000/svg">
<g filter="url(#filter0_b_1_34)">
<rect width="450" height="104.795" rx="52.3973" fill="#2E2E2E" fill-opacity="0.4" style="mix-blend-mode:luminosity"/>
<rect x="1.07877" y="1.07877" width="447.842" height="102.637" rx="51.3185" stroke="url(#paint0_linear_1_34)" stroke-width="2.15753"/>
<rect x="18.4932" y="18.4932" width="67.8082" height="67.8082" rx="33.9041" fill="white" fill-opacity="0.07"/>
<rect x="18.4932" y="18.4932" width="67.8082" height="67.8082" rx="33.9041" fill="#5E5E5E" fill-opacity="0.18" style="mix-blend-mode:color-dodge"/>
<path d="M51.6374 61.0674C49.7982 61.0674 48.0343 60.3368 46.7337 59.0362C45.4332 57.7356 44.7025 55.9717 44.7025 54.1325V42.5742C44.7025 40.735 45.4332 38.9711 46.7337 37.6705C48.0343 36.37 49.7982 35.6393 51.6374 35.6393C53.4767 35.6393 55.2406 36.37 56.5412 37.6705C57.8417 38.9711 58.5724 40.735 58.5724 42.5742V54.1325C58.5724 55.9717 57.8417 57.7356 56.5412 59.0362C55.2406 60.3368 53.4767 61.0674 51.6374 61.0674ZM51.6374 37.951C50.4113 37.951 49.2353 38.4381 48.3683 39.3051C47.5013 40.1721 47.0142 41.3481 47.0142 42.5742V54.1325C47.0142 55.3586 47.5013 56.5346 48.3683 57.4016C49.2353 58.2687 50.4113 58.7558 51.6374 58.7558C52.8636 58.7558 54.0396 58.2687 54.9066 57.4016C55.7736 56.5346 56.2607 55.3586 56.2607 54.1325V42.5742C56.2607 41.3481 55.7736 40.1721 54.9066 39.3051C54.0396 38.4381 52.8636 37.951 51.6374 37.951Z" fill="#EAE7E5"/>
<path d="M51.6346 66.6706C48.4817 66.6721 45.4407 65.502 43.102 63.3875C40.7633 61.2731 39.2936 58.3651 38.9783 55.228C38.9621 55.0668 38.98 54.904 39.0308 54.7501C39.0816 54.5962 39.1641 54.4548 39.2731 54.3349C39.3821 54.215 39.5151 54.1194 39.6634 54.0542C39.8118 53.989 39.9721 53.9558 40.1342 53.9566C40.4181 53.9545 40.6929 54.0571 40.9061 54.2447C41.1192 54.4323 41.2559 54.6918 41.29 54.9737C41.5476 57.5398 42.7492 59.9188 44.6617 61.6489C46.5743 63.3791 49.0613 64.3372 51.6404 64.3372C54.2194 64.3372 56.7064 63.3791 58.619 61.6489C60.5315 59.9188 61.7332 57.5398 61.9907 54.9737C62.0248 54.6918 62.1615 54.4323 62.3746 54.2447C62.5878 54.0571 62.8626 53.9545 63.1466 53.9566C63.3086 53.9558 63.469 53.989 63.6173 54.0542C63.7656 54.1194 63.8986 54.215 64.0076 54.3349C64.1166 54.4548 64.1992 54.5962 64.2499 54.7501C64.3007 54.904 64.3186 55.0668 64.3024 55.228C63.9869 58.367 62.5156 61.2767 60.1744 63.3914C57.8333 65.5062 54.7895 66.675 51.6346 66.6706Z" fill="#EAE7E5"/>
<path d="M51.6341 69.1573C51.3276 69.1573 51.0336 69.0355 50.8168 68.8187C50.6 68.602 50.4783 68.308 50.4783 68.0014V65.5164H52.7899V68.0014C52.7899 68.308 52.6681 68.602 52.4514 68.8187C52.2346 69.0355 51.9406 69.1573 51.6341 69.1573Z" fill="#EAE7E5"/>
<rect x="104.795" y="18.4932" width="67.8082" height="67.8082" rx="33.9041" fill="white" fill-opacity="0.07"/>
<rect x="104.795" y="18.4932" width="67.8082" height="67.8082" rx="33.9041" fill="#5E5E5E" fill-opacity="0.18" style="mix-blend-mode:color-dodge"/>
<g clip-path="url(#clip0_1_34)">
<path d="M150.88 42.0905H126.511C125.9 42.0905 125.404 42.5864 125.404 43.1981V63.136C125.404 63.7478 125.9 64.2437 126.511 64.2437H150.88C151.492 64.2437 151.988 63.7478 151.988 63.136V43.1981C151.988 42.5864 151.492 42.0905 150.88 42.0905Z" stroke="#EAE7E5" stroke-width="3.32299" stroke-linecap="round" stroke-linejoin="round"/>
<path d="M136.615 56.6012C136.024 56.9107 135.364 57.0625 134.697 57.0419C134.03 57.0213 133.38 56.8291 132.809 56.4838C132.239 56.1384 131.767 55.6517 131.439 55.0707C131.112 54.4897 130.94 53.8339 130.94 53.1669C130.94 52.4999 131.112 51.8442 131.439 51.2632C131.767 50.6821 132.239 50.1954 132.809 49.8501C133.38 49.5048 134.03 49.3125 134.697 49.2919C135.364 49.2714 136.024 49.4231 136.615 49.7326M146.584 56.6012C145.993 56.9107 145.333 57.0625 144.666 57.0419C143.999 57.0213 143.349 56.8291 142.778 56.4838C142.208 56.1384 141.736 55.6517 141.408 55.0707C141.081 54.4897 140.909 53.8339 140.909 53.1669C140.909 52.4999 141.081 51.8442 141.408 51.2632C141.736 50.6821 142.208 50.1954 142.778 49.8501C143.349 49.5048 143.999 49.3125 144.666 49.2919C145.333 49.2714 145.993 49.4231 146.584 49.7326" stroke="#EAE7E5" stroke-width="3.32299" stroke-linecap="round" stroke-linejoin="round"/>
</g>
<rect x="191.096" y="18.4932" width="67.8082" height="67.8082" rx="33.9041" fill="white" fill-opacity="0.07"/>
<rect x="191.096" y="18.4932" width="67.8082" height="67.8082" rx="33.9041" fill="#5E5E5E" fill-opacity="0.18" style="mix-blend-mode:color-dodge"/>
<path d="M225.766 34.8682C216.1 34.8682 208.236 42.7316 208.236 52.3982C208.236 62.0647 216.1 69.9281 225.766 69.9281C235.433 69.9281 243.296 62.0647 243.296 52.3982C243.296 42.7316 235.433 34.8682 225.766 34.8682ZM225.766 37.7932C227.685 37.7899 229.586 38.1654 231.36 38.8981C233.134 39.6309 234.745 40.7064 236.103 42.0632C237.46 43.42 238.536 45.0313 239.269 46.8048C240.003 48.5783 240.379 50.479 240.376 52.3982C240.379 54.3175 240.003 56.2185 239.269 57.9923C238.536 59.766 237.46 61.3777 236.103 62.7348C234.746 64.092 233.134 65.1681 231.36 65.9014C229.587 66.6347 227.686 67.0108 225.766 67.0081C223.847 67.0108 221.946 66.6346 220.173 65.9013C218.399 65.1679 216.788 64.0918 215.431 62.7345C214.074 61.3773 212.999 59.7656 212.266 57.9919C211.533 56.2182 211.158 54.3173 211.161 52.3982C211.158 50.4793 211.533 48.5786 212.266 46.8052C212.999 45.0317 214.075 43.4204 215.432 42.0635C216.788 40.7067 218.4 39.631 220.173 38.8982C221.947 38.1654 223.847 37.7899 225.766 37.7932ZM219.505 44.8853C217.444 44.8853 215.749 46.5832 215.749 48.6417C215.749 50.7003 217.444 52.3982 219.505 52.3982C221.566 52.3982 223.262 50.7003 223.262 48.6417C223.262 46.5832 221.566 44.8853 219.505 44.8853ZM232.027 44.8853C229.966 44.8853 228.27 46.5832 228.27 48.6417C228.27 50.7003 229.966 52.3982 232.027 52.3982C234.088 52.3982 235.783 50.7003 235.783 48.6417C235.783 46.5832 234.088 44.8853 232.027 44.8853ZM219.505 47.3896C220.212 47.3896 220.758 47.9355 220.758 48.6417C220.758 49.3479 220.212 49.8939 219.505 49.8939C219.34 49.8962 219.176 49.8655 219.024 49.8034C218.871 49.7413 218.732 49.6491 218.615 49.5324C218.498 49.4157 218.406 49.2767 218.344 49.1237C218.282 48.9707 218.251 48.8068 218.253 48.6417C218.253 47.9355 218.799 47.3896 219.505 47.3896ZM232.027 47.3896C232.733 47.3896 233.279 47.9355 233.279 48.6417C233.279 49.3479 232.733 49.8939 232.027 49.8939C231.862 49.8962 231.698 49.8655 231.545 49.8034C231.392 49.7413 231.253 49.6491 231.136 49.5324C231.019 49.4157 230.927 49.2767 230.865 49.1237C230.803 48.9707 230.772 48.8068 230.775 48.6417C230.775 47.9355 231.321 47.3896 232.027 47.3896ZM218.834 57.0411L217.059 58.8116C218.202 59.9559 219.56 60.8636 221.055 61.483C222.549 62.1023 224.151 62.4211 225.769 62.4211C227.386 62.4211 228.988 62.1023 230.483 61.483C231.977 60.8636 233.335 59.9559 234.479 58.8116L232.701 57.0411C231.79 57.9516 230.709 58.6739 229.52 59.1667C228.33 59.6595 227.055 59.9131 225.767 59.9131C224.48 59.9131 223.205 59.6595 222.015 59.1667C220.826 58.6739 219.745 57.9516 218.834 57.0411Z" fill="#EAE7E5"/>
<rect x="277.397" y="18.4932" width="67.8082" height="67.8082" rx="33.9041" fill="white" fill-opacity="0.07"/>
<rect x="277.397" y="18.4932" width="67.8082" height="67.8082" rx="33.9041" fill="#5E5E5E" fill-opacity="0.18" style="mix-blend-mode:color-dodge"/>
<path d="M309.768 38.5292C308.073 38.5292 306.686 39.9162 306.686 41.6114C306.686 43.3066 308.073 44.6936 309.768 44.6936C311.464 44.6936 312.851 43.3066 312.851 41.6114C312.851 39.9162 311.464 38.5292 309.768 38.5292ZM309.768 60.1046C308.073 60.1046 306.686 61.4916 306.686 63.1868C306.686 64.882 308.073 66.269 309.768 66.269C311.464 66.269 312.851 64.882 312.851 63.1868C312.851 61.4916 311.464 60.1046 309.768 60.1046ZM309.768 49.3169C308.073 49.3169 306.686 50.7039 306.686 52.3991C306.686 54.0943 308.073 55.4813 309.768 55.4813C311.464 55.4813 312.851 54.0943 312.851 52.3991C312.851 50.7039 311.464 49.3169 309.768 49.3169Z" fill="#EAE7E5"/>
<rect x="363.699" y="18.4932" width="67.8082" height="67.8082" rx="33.9041" fill="white" fill-opacity="0.07"/>
<rect x="363.699" y="18.4932" width="67.8082" height="67.8082" rx="33.9041" fill="#FF574C"/>
<g clip-path="url(#clip1_1_34)">
<path d="M382.979 57.3886L379.126 53.5353C378.554 52.9632 378.521 52.0462 379.051 51.4353C379.494 50.9249 379.866 50.5194 380.168 50.2183C389.797 40.5889 405.409 40.5889 415.039 50.2183C415.34 50.5193 415.712 50.925 416.155 51.4353C416.685 52.0463 416.653 52.9632 416.081 53.5352L412.227 57.3887C411.947 57.6684 411.501 57.6908 411.195 57.4406C410.92 57.216 410.696 57.0389 410.523 56.9092C408.763 55.5902 406.847 54.5751 404.848 53.8641C404.527 53.75 404.334 53.4222 404.39 53.0862L405.062 49.0542C400.285 47.1414 394.921 47.1413 390.144 49.0541L390.815 53.079C390.872 53.4191 390.676 53.7508 390.352 53.8664C388.353 54.5779 386.438 55.5933 384.679 56.9126C384.507 57.0414 384.285 57.2175 384.011 57.4406C383.705 57.6908 383.259 57.6683 382.979 57.3886Z" fill="white"/>
</g>
</g>
<defs>
<filter id="filter0_b_1_34" x="-154.11" y="-154.11" width="758.219" height="413.014" filterUnits="userSpaceOnUse" color-interpolation-filters="sRGB">
<feFlood flood-opacity="0" result="BackgroundImageFix"/>
<feGaussianBlur in="BackgroundImageFix" stdDeviation="77.0548"/>
<feComposite in2="SourceAlpha" operator="in" result="effect1_backgroundBlur_1_34"/>
<feBlend mode="normal" in="SourceGraphic" in2="effect1_backgroundBlur_1_34" result="shape"/>
</filter>
<linearGradient id="paint0_linear_1_34" x1="31.5247" y1="-2.3235e-05" x2="45.2056" y2="135.246" gradientUnits="userSpaceOnUse">
<stop stop-color="white" stop-opacity="0.4"/>
<stop offset="0.405687" stop-color="white" stop-opacity="0.01"/>
<stop offset="0.574372" stop-color="white" stop-opacity="0.01"/>
<stop offset="1" stop-color="white" stop-opacity="0.1"/>
</linearGradient>
<clipPath id="clip0_1_34">
<rect width="35.4452" height="35.4452" fill="white" transform="translate(120.979 35.4444)"/>
</clipPath>
<clipPath id="clip1_1_34">
<rect width="38.5274" height="36.9863" fill="white" transform="translate(378.344 33.9034)"/>
</clipPath>
</defs>
</svg>
